<?xml version="1.0" encoding="utf-8"?>
<!-- Generator: Adobe Illustrator 21.1.0, SVG Export Plug-In . SVG Version: 6.00 Build 0)  -->
<svg version="1.1" id="Calque_1" xmlns="http://www.w3.org/2000/svg" xmlns:xlink="http://www.w3.org/1999/xlink" x="0px" y="0px"
	 viewBox="0 0 708.7 251.5" style="enable-background:new 0 0 708.7 251.5;" xml:space="preserve">
<style type="text/css">
	.st0{fill:#002052;}
	.st1{fill:#9ABADF;}
</style>
<path class="st0" d="M161.1,236c-8.9,2.3-23.8,6.2-49.2,6.2C29.6,242.2-9.7,190.3,2,123.7C13.4,58.8,69.6,0,158.7,0
	c26,0,45,4.9,59.8,9.5l-9,51.2c-7.2-5.2-23.9-17.3-51.3-17.3c-50.7,0-85.9,35.6-93.3,77.7c-7.8,44.4,17.3,79,70.7,79
	c20.5,0,41.8-4.6,62-12.4L161.1,236z"/>
<path class="st1" d="M299.8,114.6c0.5-4.5,1.5-13.1-4-19.7c-3.9-4.8-9.6-7.2-16.5-7.2c-11.7,0-24.9,7.5-31.5,26.9H299.8z
	 M303.6,195.8c-15.2,3.5-29.1,4.3-37.9,4.3c-57.6,0-71.7-34.4-65.7-68.7c6.8-38.9,37.1-69.3,82.2-69.3c12.7,0,36,1.9,49.1,21.3
	c12.2,18.1,8.3,40.5,5.8,54.3h-92.6c-0.5,2.7,0.9,18.9,10.3,25.8c8.2,6.1,16.1,8,29.4,8c14.6,0,29.5-3.2,44-8.8L303.6,195.8z"/>
<path class="st1" d="M446.2,97c-3-1.3-8.9-4-17.1-4c-19.1,0-33.8,14.1-37.4,34.9c-3.7,21.3,5.4,34.1,22.9,34.1
	c9,0,16.5-3.2,21.1-5.3L446.2,97z M410.9,190.2c-3,0.5-9,1.6-15.1,1.6c-35.5,0-55.9-22.9-49.5-59.7c6.2-35.4,35.7-70.1,89-70.1
	c29.4,0,49.8,9.6,57.1,13.1l-17.9,101.8c-1,5.9-2.6,14.6-6.3,23.7c-5.3,12-14.7,24.5-26,33c-17.2,13.3-37.6,17.8-57,17.8
	c-9,0-33.1-1.6-51.1-9.9l6.5-37.3c11,9.9,28.4,16.5,44.6,16.5c11.4,0,23.6-3.2,32.6-11.7c9.9-9.3,12.1-20.8,15-37.3l1.5-8.5
	L410.9,190.2z"/>
<path class="st1" d="M529.2,196.9h-42.7L509.6,65h42.7L529.2,196.9z M533.7,48.5c-11.4,0-20.4-7.7-18.2-20c2.1-12,13.6-20,25.5-20
	c11.4,0,20.1,7.7,18,20C556.8,41,545.4,48.5,533.7,48.5"/>
<path class="st1" d="M649.7,99.9c-2.1-1.9-8.1-6.9-18.4-6.9c-21.8,0-32.9,21-36.2,39.7c-1.4,7.7-2.3,19.2,3.4,27.7
	c3.1,4.8,9.2,9.6,19.5,9.6c7.2,0,13.6-2.1,20.4-5.6L649.7,99.9z M675.6,196.9h-43l4.7-26.6l-22.7,26.6c-5,1.3-12,3.2-19.7,3.2
	c-38.7,0-50-34.1-44.2-67.4c6.9-39.4,36.8-70.6,72.6-70.6c17.8,0,26.5,6.4,31.2,9.9l11.1-63.1h43L675.6,196.9z"/>
</svg>
